<svg xmlns="http://www.w3.org/2000/svg" width="86.578" height="87.656" viewBox="0 0 86.578 87.656">
    <defs>
        <style>
            .cls-1{fill:#184c5f}
        </style>
    </defs>
    <g id="noun_relaxing_1503620" transform="translate(-5 -7.475)">
        <g id="그룹_1753">
            <path id="패스_1251" d="M29.55 64.454l.16.235.034.281c.182-.025.1-.027.1-.253-.09-.237-.09-.237-.272-.274.136.023.166.03.2.056a1.423 1.423 0 0 1 .244.072c.134.046.18.061.22.076.182.044.228.053.267.059l.271.043.151.019q.046.006 3.18.008c.1 0 .213 0 .334.011s.234.014.341.022.21.015.327.021.244.017.359.031l.352.042q.2.023.374.057c.114.022.234.047.36.075s.248.056.361.085l.365.094c.136.035.26.071.372.108s.22.075.34.118.241.091.357.14.215.088.328.128l.373.135q.2.072.39.147l.349.136q.16.061.372.13t.39.123q.172.052.4.112c.147.039.286.073.416.1s.273.049.426.07.3.038.427.051l.456.041.5.042q.243.019.5.031t.548.032q.286.02.583.052l.55.062q.264.03.612.085t.639.106q.3.053.626.14l.612.167q.305.084.635.189l.581.186q.262.084.618.211t.66.229l.611.208.642.218q.339.113.647.2t.641.184q.328.093.721.2l.674.178q.273.072.619.141l.715.144q.359.073.7.134t.616.116q.259.052.627.1l.685.093q.314.043.629.094t.641.091l.687.083q.344.042.639.084l.653.093.636.094.633.1q.369.056.677.117.293.06.62.11t.613.108q.265.053.56.1l.592.1q.288.051.556.092t.577.105q.283.06.555.1.289.043.547.1c.164.035.331.07.5.1s.322.06.463.081.305.046.472.075.313.05.45.069.274.036.417.05l.406.042q.181.019.353.031c.116.008.231.015.349.021l.352.019.33.02q.145.009.3.009.179 0 .338.014c.094.008.2.015.315.021s.222.014.305.021.188.018.288.034.178.023.266.029c.105.007.21.017.311.032l.24.031a1.954 1.954 0 0 0 .208.01h1.028a2.218 2.218 0 0 0 .232-.03l.194-.036c.1-.1.125-.13.157-.163a.733.733 0 0 0 .043-.118 1.1 1.1 0 0 0 .024-.182V70.2c0-.091 0-.186-.01-.284s-.016-.189-.03-.287c-.017-.113-.028-.237-.034-.37s-.016-.237-.028-.349-.024-.249-.031-.378l-.022-.369c-.008-.122-.02-.258-.033-.4s-.023-.282-.03-.4-.016-.254-.029-.419-.027-.321-.041-.471-.029-.307-.042-.461-.027-.319-.04-.493-.029-.332-.051-.493-.044-.342-.065-.522l-.071-.582c-.026-.207-.053-.407-.081-.6s-.058-.405-.086-.628-.059-.436-.093-.655-.069-.449-.1-.678-.067-.461-.1-.7-.077-.5-.126-.784-.1-.582-.137-.868-.083-.573-.124-.865-.084-.6-.126-.93-.082-.638-.124-.943-.083-.633-.124-.98-.086-.7-.134-1.067-.093-.719-.134-1.053-.085-.677-.133-1.037-.1-.709-.156-1.052-.113-.71-.168-1.087-.109-.716-.164-1.031-.118-.647-.186-.992-.136-.682-.2-1.014-.138-.63-.207-.9-.142-.555-.218-.838-.152-.541-.232-.784-.165-.484-.247-.711-.173-.459-.276-.7-.2-.448-.282-.614-.191-.359-.313-.571-.237-.4-.347-.571-.223-.338-.344-.507-.239-.324-.353-.465-.232-.275-.359-.408-.26-.26-.4-.379-.28-.238-.415-.347-.284-.222-.439-.337-.319-.231-.488-.346-.329-.221-.478-.315-.33-.2-.544-.328-.394-.225-.55-.306-.342-.174-.558-.277-.422-.194-.619-.276-.408-.163-.625-.243-.41-.147-.586-.2-.383-.113-.621-.176-.459-.112-.675-.151l-.665-.125q-.323-.062-.69-.113a6.382 6.382 0 0 0-.7-.058q-.348-.01-.726-.01h-1.6q-.379 0-.808.019t-.811.06q-.39.042-.833.1t-.793.133q-.356.072-.847.2t-.9.254q-.422.134-.836.277t-.833.325q-.432.187-.864.382t-.764.383q-.354.2-.845.468t-.828.482q-.351.22-.784.5t-.864.576q-.434.3-.885.63t-.862.65q-.411.32-.836.67t-.807.706q-.394.367-.791.721t-.81.761q-.423.415-.837.83t-.779.829q-.374.425-.778.892t-.723.89q-.328.437-.679.923t-.644.941q-.3.465-.611.972t-.607.97q-.289.455-.587.951l-.581.967q-.279.464-.535.918t-.571.991q-.309.527-.547.943t-.476.839q-.238.426-.51.907t-.464.836q-.195.361-.4.757l-.4.749-.381.726q-.195.373-.35.682-.159.316-.338.643t-.366.652q-.189.327-.349.582l-.314.5q-.159.253-.3.473t-.288.41q-.021.006.784-.518zM76.316 72.3v-.008zm.021-.042l.008-.008-.005.006zm-46.579-7.764l.058.043-.043-.038zm0 0zm-.085.486l.071-.009zm-1.194.34c-.1.129-.193.238-.274.328l-.229.248-.217.239c-.076.084-.154.163-.233.235l-.2.184-.154.135-.141.121c-.141.118-.14.117-.253.117v-.568c-.118.021-.118.021-.182.074l.014-.015a.432.432 0 0 1 .19-.125.3.3 0 0 0 .056-.031 1.592 1.592 0 0 1 .179-.1c.05-.025.1-.053.159-.086a1.362 1.362 0 0 0 .176-.129l.022-.017 1.318-.9q-.11.141-.231.289zm.968-.356l-.033-.024.029.026zm-2.412 1.826l-.006.006zm-.035.033h.008z" class="cls-1"/>
            <path id="패스_1252" d="M67.32 33.3c-.351.132-.612.234-.774.3a4.044 4.044 0 0 1-.816.249 4.382 4.382 0 0 1-.768.086 5.375 5.375 0 0 1-.752-.045c-.237-.03-.452-.063-.652-.1-.184-.035-.377-.076-.584-.124a6.005 6.005 0 0 1-.741-.227c-.231-.087-.455-.18-.671-.28s-.458-.224-.7-.361-.475-.282-.7-.435-.445-.315-.673-.5-.443-.359-.677-.561-.41-.36-.546-.487-.258-.244-.385-.368-.3-.3-.535-.535-.43-.435-.56-.574-.253-.274-.387-.424-.276-.314-.399-.464-.231-.3-.351-.468-.235-.328-.341-.485-.217-.324-.327-.5-.228-.365-.34-.56-.207-.37-.3-.549c-.1-.2-.2-.4-.291-.614-.081-.192-.165-.4-.254-.63s-.16-.422-.224-.6-.128-.38-.2-.6-.131-.435-.186-.637-.113-.435-.166-.674-.112-.553-.17-.92-.1-.657-.11-.87-.017-.465-.014-.8A9.529 9.529 0 0 1 52.8 18.5q.056-.471.107-.755c.033-.186.08-.423.143-.715a7.037 7.037 0 0 1 .3-1.021 9.068 9.068 0 0 1 .4-.912 7.525 7.525 0 0 1 .473-.8 8.886 8.886 0 0 1 .544-.718 7.834 7.834 0 0 1 .689-.722 8.52 8.52 0 0 1 .763-.633c.249-.183.46-.327.644-.436.152-.09.307-.178.471-.268s.4-.211.729-.37l.707-.343c.168-.081.343-.163.526-.246l.535-.245c.194-.089.382-.173.568-.253l.521-.225.557-.245c.214-.1.4-.179.558-.244l.532-.225.568-.233q.283-.116.574-.226l.537-.2c.181-.067.37-.134.573-.2s.385-.123.566-.176.351-.1.52-.147.337-.089.509-.131c.2-.052.478-.107.827-.169a10.357 10.357 0 0 1 1.04-.136 8.126 8.126 0 0 1 1.021-.016 7.517 7.517 0 0 1 .812.073c.184.029.427.076.73.14a5.937 5.937 0 0 1 1.051.32c.293.119.527.221.706.309s.342.174.513.27.325.187.478.282.31.2.47.308.363.258.642.462.562.428.83.651.518.443.755.666.448.434.649.646.384.412.568.619.366.429.532.644a5.932 5.932 0 0 1 .479.722 7.316 7.316 0 0 1 .358.748 7.877 7.877 0 0 1 .285.817q.116.4.2.824t.126.842q.045.415.065.836t.02.827q0 .4-.009.789c-.006.261-.016.517-.029.771s-.03.492-.049.727-.041.454-.065.677-.052.458-.085.685-.068.432-.106.634-.088.421-.144.623a5.441 5.441 0 0 1-.215.622c-.073.176-.153.355-.24.539s-.192.383-.3.569-.21.352-.326.531-.231.346-.355.519-.258.347-.4.528-.293.358-.446.531l-.409.459q-.205.229-.419.465l-.435.477c-.156.171-.306.33-.448.475s-.3.3-.459.459-.338.317-.51.465-.336.281-.508.414-.334.253-.509.378q-.286.2-.6.394c-.2.122-.4.231-.591.33s-.367.181-.559.266-.412.171-.654.257-.461.154-.679.213-.445.108-.678.149l-.3.052a1.213 1.213 0 0 1-.939-.225 1.216 1.216 0 0 1-.785 1.031zm1.3-3.206l.3-.052c.164-.029.319-.063.462-.1s.324-.1.505-.16.347-.129.48-.188.294-.135.434-.207.29-.156.451-.252.3-.187.432-.282c.152-.109.3-.219.441-.328s.275-.219.41-.334.268-.238.4-.367.277-.273.4-.4.259-.271.4-.422l.433-.475c.138-.151.272-.3.4-.445l.407-.457q.185-.208.363-.431c.12-.15.23-.295.328-.431s.2-.283.29-.424.179-.284.26-.424.145-.263.208-.4.133-.289.19-.427a2.992 2.992 0 0 0 .118-.339c.037-.133.069-.275.1-.426.032-.168.062-.346.089-.531s.059-.392.079-.592.042-.419.06-.628.032-.426.044-.65.02-.463.026-.7.009-.483.009-.73-.006-.474-.017-.712-.029-.461-.053-.689-.056-.433-.1-.644-.089-.412-.146-.61a5.43 5.43 0 0 0-.2-.562 4.876 4.876 0 0 0-.235-.493 3.5 3.5 0 0 0-.281-.421c-.132-.171-.276-.345-.429-.52s-.331-.368-.507-.553-.355-.363-.552-.549-.414-.376-.646-.569-.47-.38-.715-.561-.456-.332-.583-.42-.249-.167-.37-.243-.252-.153-.388-.229-.261-.142-.39-.205-.307-.141-.556-.242a3.525 3.525 0 0 0-.627-.191c-.271-.057-.478-.1-.618-.119-.108-.017-.292-.033-.542-.045a5.709 5.709 0 0 0-.719.011 7.974 7.974 0 0 0-.8.105c-.3.053-.52.1-.662.134-.164.041-.321.081-.471.121s-.3.083-.462.131-.323.1-.492.154-.335.114-.487.171l-.519.2q-.264.1-.522.206l-.551.227-.517.218c-.143.06-.313.135-.513.225s-.4.179-.583.257l-.531.23c-.165.071-.336.147-.51.227l-.543.248c-.167.076-.327.151-.478.224l-.7.338c-.294.144-.509.253-.632.319s-.267.15-.393.224c-.1.061-.253.164-.446.306a6.112 6.112 0 0 0-.548.456 5.428 5.428 0 0 0-.479.5 6.473 6.473 0 0 0-.4.523 5.106 5.106 0 0 0-.321.546 6.654 6.654 0 0 0-.294.669 4.61 4.61 0 0 0-.2.668c-.057.264-.1.473-.126.63-.025.14-.055.347-.087.616a7.1 7.1 0 0 0-.048.773c0 .285 0 .5.009.619s.037.344.085.652.1.578.142.771.091.39.139.566.1.36.162.556.115.364.165.506.122.334.2.539.154.391.223.554.131.292.2.429c.081.154.169.313.26.473s.184.31.279.459.194.3.289.439.193.279.3.426.2.276.3.4.187.23.294.351.236.261.345.378.279.29.509.521l.517.517c.109.108.222.215.338.323s.273.248.48.428.4.342.592.491.361.275.532.392.349.226.535.332.356.193.516.267.334.146.51.212a3.571 3.571 0 0 0 .435.134c.175.04.34.075.49.1s.314.053.5.077a2.983 2.983 0 0 0 .407.026 2 2 0 0 0 .346-.042 1.633 1.633 0 0 0 .333-.1c.2-.085.488-.2.866-.339a1.215 1.215 0 0 1 1.157.165 1.217 1.217 0 0 1 1.018-1.102z" class="cls-1"/>
            <path id="패스_1253" d="M11.135 72.821c.156-.085.317-.177.479-.271l.56-.331.64-.376c.227-.131.462-.264.7-.395l.763-.425c.285-.16.566-.313.84-.459s.49-.26.659-.347q.229-.116.451-.232l.475-.248.476-.251.492-.256.5-.259q.231-.119.478-.254l.494-.273c.151-.084.307-.174.472-.27l.507-.292c.159-.091.316-.181.465-.269s.309-.185.469-.284l.483-.3.473-.292.455-.281c.148-.093.354-.225.616-.4l.609-.4.551-.356q.352-.226.711-.445c.234-.143.453-.275.663-.4s.4-.234.569-.331.35-.2.525-.288c.152-.08.324-.175.518-.285a4.619 4.619 0 0 0 .408-.254q.177-.127.386-.3c.168-.139.4-.329.712-.571a1.216 1.216 0 1 1 1.505 1.91c-.293.231-.515.409-.665.533q-.272.226-.524.406a6.954 6.954 0 0 1-.624.392q-.318.18-.58.319-.228.12-.457.251c-.157.089-.334.193-.527.307s-.414.249-.643.389-.444.274-.661.413l-.537.347-.609.4q-.412.269-.659.423l-.472.292-.464.286-.486.3c-.172.106-.34.208-.51.308s-.329.191-.5.287l-.485.279c-.176.1-.347.2-.512.293l-.51.282q-.275.151-.535.284l-.5.257-.475.248-.482.254-.476.248c-.157.082-.315.164-.47.242s-.357.186-.622.328-.524.282-.8.435l-.772.43c-.228.126-.449.25-.658.371l-.621.365-.568.336q-.277.162-.541.306c-.158.087-.329.183-.516.291l-.507.289q-.211.121-.413.241a1.437 1.437 0 0 1-2.035-.567 5.121 5.121 0 0 1-.324-.667q-.105-.263-.2-.508t-.2-.553q-.109-.308-.228-.7c-.081-.267-.161-.559-.24-.873l-.179-.7c-.046-.176-.09-.352-.135-.529l-.145-.567c-.054-.208-.108-.405-.151-.565s-.1-.35-.157-.563-.124-.433-.189-.66-.128-.44-.191-.647-.12-.4-.169-.558-.1-.331-.171-.531-.144-.451-.244-.731-.185-.53-.275-.77-.168-.444-.237-.613c-.076-.187-.147-.368-.213-.54l-.1-.249a1.216 1.216 0 1 1 2.271-.871l.1.251q.091.238.2.5c.077.191.164.416.262.677s.2.537.3.828.183.534.256.752.137.418.19.592l.172.568.2.671c.069.231.131.453.193.672s.117.414.164.589.1.36.156.582.109.421.153.6.085.339.129.509l.183.715q.106.421.21.763t.194.6q.089.254.172.468c.195-.122.381-.227.555-.322z" class="cls-1"/>
            <path id="패스_1254" d="M53.516 91.894c.154-.115.337-.258.548-.425s.426-.343.635-.517.377-.315.492-.414l.384-.331c.12-.1.25-.218.394-.35s.292-.265.438-.4.3-.279.438-.4.272-.253.431-.407l.488-.472c.157-.151.314-.3.474-.461s.332-.325.52-.513l.573-.567c.191-.188.378-.37.562-.549l.558-.542c.196-.191.4-.387.587-.571l.561-.545q.281-.276.593-.577l.622-.6.575-.556q.267-.257.614-.585t.613-.58l.564-.535.589-.552q.318-.3.631-.584c.207-.189.4-.368.586-.532s.366-.335.553-.507.387-.36.571-.527.366-.334.545-.494.353-.319.548-.5l.536-.5q.231-.213.453-.423c.157-.148.324-.3.506-.469s.38-.345.627-.571.475-.439.7-.659.439-.426.611-.6.354-.346.519-.5.3-.286.426-.408.241-.239.344-.345.182-.2.271-.305.177-.223.263-.343a4.493 4.493 0 0 1 .787-.784 1.216 1.216 0 1 1 1.554 1.875 3.529 3.529 0 0 0-.361.328q-.171.24-.36.47c-.129.157-.261.305-.4.449-.122.126-.253.258-.4.4l-.45.431c-.164.156-.313.3-.481.465s-.389.381-.632.616-.5.472-.752.7-.46.42-.632.575-.325.3-.471.437-.313.294-.472.441l-.537.5q-.305.282-.575.524c-.172.155-.348.313-.527.478s-.363.333-.556.514-.387.356-.577.529-.374.338-.576.524-.4.372-.608.563l-.589.552c-.182.172-.365.345-.55.522s-.4.376-.624.59-.422.4-.594.566l-.571.557-.62.6-.585.569-.571.555q-.283.273-.574.559c-.2.2-.392.383-.571.555s-.359.349-.545.532l-.568.562c-.193.192-.371.367-.532.524s-.327.319-.485.471l-.491.475q-.259.25-.476.448c-.133.122-.275.253-.427.395s-.31.285-.457.418-.3.274-.443.393l-.381.328-.526.442q-.326.274-.676.55-.343.272-.6.467c-.169.127-.336.25-.506.372s-.356.248-.546.371l-.48.311a1.345 1.345 0 0 1-2.1-.973 4.47 4.47 0 0 0-.1-.453c-.051-.2-.1-.37-.149-.518-.054-.166-.113-.339-.176-.513s-.134-.355-.215-.552-.171-.407-.257-.6-.174-.4-.255-.587-.161-.376-.24-.563-.161-.393-.233-.586-.141-.4-.2-.6a5.482 5.482 0 0 1-.145-.655l-.041-.26a1.216 1.216 0 0 1 2.4-.378l.041.259a3.025 3.025 0 0 0 .079.358c.04.137.088.28.142.426q.09.241.2.5l.23.542.25.575q.138.315.276.647c.1.231.18.449.257.661.049.137.1.271.139.4z" class="cls-1"/>
            <path id="패스_1255" d="M46.238 39.937a1.216 1.216 0 0 1 .045 1.719c-.271.286-.476.493-.623.629a1.588 1.588 0 0 1-1.69.318 2.553 2.553 0 0 1-.811-.515c-.161-.15-.33-.326-.511-.531-.165-.188-.311-.359-.44-.519s-.249-.314-.381-.486l-.408-.536c-.153-.2-.3-.414-.456-.635-.161-.238-.317-.5-.466-.77a8.6 8.6 0 0 1-.444-.961c-.128-.326-.221-.58-.283-.771s-.115-.376-.171-.581-.1-.394-.156-.6-.1-.42-.147-.626-.091-.416-.142-.653-.1-.489-.149-.737-.09-.475-.131-.7l-.129-.722-.13-.756-.118-.685c-.036-.206-.068-.389-.1-.556s-.07-.379-.112-.61-.074-.4-.106-.566-.066-.346-.1-.534-.073-.43-.124-.739-.091-.573-.114-.759-.046-.412-.071-.692-.046-.57-.061-.858-.024-.542-.027-.761 0-.421 0-.632a4.189 4.189 0 0 1 .092-.833 4.992 4.992 0 0 1 .216-.739c.082-.216.177-.433.287-.655s.231-.435.369-.654q.192-.3.367-.55c.107-.149.219-.3.339-.465s.251-.33.389-.5.27-.328.414-.5a6.931 6.931 0 0 1 .524-.55c.172-.162.364-.328.576-.5s.406-.321.6-.466.4-.287.606-.426.437-.287.672-.429.455-.271.686-.4.464-.267.7-.4.5-.283.765-.431.45-.252.592-.335l.6-.347q.364-.211.683-.412.346-.217.713-.438t.733-.436q.373-.218.744-.425t.787-.42c.279-.143.552-.273.815-.39s.514-.224.753-.319.508-.194.772-.28.5-.154.746-.221.459-.121.666-.173l.643-.159q.321-.079.638-.164t.613-.174c.2-.061.408-.125.611-.191s.413-.139.625-.216.394-.145.564-.214.351-.145.533-.225c.2-.087.4-.17.6-.25s.394-.153.58-.219.366-.125.544-.179.386-.113.615-.172c.251-.064.505-.117.761-.156s.479-.069.7-.089c.2-.019.4-.036.587-.051q.236-.02.512-.064c.205-.033.405-.067.6-.1q.337-.062.644-.1t.612-.058l.266-.017a1.216 1.216 0 1 1 .156 2.427l-.266.017q-.229.015-.465.044c-.158.02-.328.046-.512.08q-.315.057-.646.11c-.242.039-.473.067-.7.086q-.276.022-.561.049c-.169.016-.351.039-.55.07q-.271.042-.53.109-.292.075-.51.142c-.147.045-.3.094-.444.146s-.318.117-.5.187-.354.144-.527.219c-.2.087-.4.17-.6.251s-.419.163-.65.246-.46.162-.69.238-.448.143-.669.21-.451.132-.683.194-.459.121-.689.177l-.636.158q-.29.072-.619.161c-.209.056-.422.119-.634.187s-.411.141-.617.224-.431.177-.665.281-.457.211-.7.334-.481.251-.709.378-.467.263-.7.4-.471.278-.705.419-.459.279-.677.416q-.355.223-.755.455l-.6.345q-.232.136-.634.359c-.258.143-.5.282-.743.419s-.468.267-.693.4-.432.252-.643.379-.389.242-.568.363-.359.247-.531.373-.338.254-.511.394-.314.263-.442.383a4.5 4.5 0 0 0-.34.357c-.132.154-.257.3-.373.446s-.226.286-.329.424-.213.289-.311.426-.184.267-.287.43-.18.3-.25.442-.137.294-.191.437a2.573 2.573 0 0 0-.112.383 1.766 1.766 0 0 0-.039.353v.577c0 .183.01.4.023.66s.032.514.055.767.044.463.063.614.051.368.1.663.089.541.118.708.062.337.091.49c.034.172.072.374.113.6l.11.6c.033.178.067.372.1.575s.077.441.12.7.087.508.129.753.084.477.124.7.083.449.128.685.09.458.138.684.1.443.138.636.085.372.132.563.1.38.145.56.09.322.136.463.122.346.232.629a6.191 6.191 0 0 0 .317.69c.113.209.227.4.339.561.129.188.259.369.387.54l.4.525c.119.156.233.3.34.434s.23.277.372.439a1.307 1.307 0 0 1 1.802-.027z" class="cls-1"/>
            <path id="패스_1256" d="M76.671 14.94v-.006zm-.366.329a1.216 1.216 0 0 1 .306-1.692l.205-.142a1.375 1.375 0 0 1 2.14.674c.061.169.124.353.191.552a3.726 3.726 0 0 0 .153.393.848.848 0 0 0 .116.183.317.317 0 0 0 .077.072 2.357 2.357 0 0 0 .3.154 6.452 6.452 0 0 1 .613.3 4.6 4.6 0 0 1 .618.413c.163.131.341.288.54.476l.457.432c.118.11.244.221.376.331s.264.21.392.3.287.2.444.3c.2.124.381.249.551.371a5.778 5.778 0 0 1 .566.458 6.354 6.354 0 0 1 .521.543l.45.526c.158.186.317.378.475.572l.471.578q.267.329.517.7t.469.75q.206.362.417.769c.141.272.281.556.422.857q.193.417.369.782t.332.683c.107.215.213.424.315.623s.2.377.3.555.2.337.309.516.244.385.378.591q.22.343.429.715.219.391.408.818a7.479 7.479 0 0 1 .334.917 8.729 8.729 0 0 1 .218.933 5.433 5.433 0 0 1 .093.853v.686c0 .3-.006.55-.02.747s-.041.444-.082.761-.083.577-.125.781c-.038.18-.079.359-.124.54s-.092.351-.146.535-.116.374-.186.576-.173.47-.308.806-.255.621-.357.839q-.14.3-.258.53c-.083.165-.173.334-.272.51s-.181.317-.272.473-.2.327-.312.494-.213.314-.319.461-.214.291-.333.445-.257.322-.386.468-.242.272-.364.4-.251.269-.387.41l-.39.4c-.139.145-.273.28-.4.4s-.267.263-.433.424-.3.29-.405.4c-.122.124-.267.267-.431.429s-.305.3-.44.438-.292.29-.443.437-.294.285-.428.412-.289.268-.444.405l-.412.368q-.206.181-.422.361t-.584.475q-.387.31-.784.595-.381.272-.713.5t-.634.419c-.211.137-.418.269-.621.394s-.41.25-.619.373-.435.252-.643.364-.456.237-.7.347-.494.215-.726.3-.487.16-.749.226-.478.114-.692.155-.439.075-.647.1-.431.037-.69.047c-.216.008-.408.02-.57.034s-.337.035-.512.059a1.677 1.677 0 0 1-1.578-.614 1.334 1.334 0 0 1 .154-1.855 1.933 1.933 0 0 1 .895-.424 1.216 1.216 0 0 1 1.2.385l.318-.015c.209-.008.386-.02.531-.035s.286-.037.444-.067.35-.073.554-.125.365-.1.531-.16.338-.129.525-.215.374-.178.551-.275.371-.2.564-.319.389-.232.578-.349.377-.236.571-.362.4-.263.606-.4.42-.287.655-.455.453-.334.677-.513.419-.338.548-.446.254-.214.375-.321l.411-.361q.2-.176.378-.345c.125-.119.26-.248.406-.39s.281-.275.414-.408l.459-.457c.166-.164.293-.289.411-.409s.267-.265.435-.428.3-.294.422-.413.229-.228.352-.357l.394-.409q.185-.191.347-.368c.109-.118.217-.239.327-.364q.145-.164.288-.349c.1-.134.2-.262.284-.379s.176-.249.268-.388.169-.261.239-.379c.081-.139.165-.284.249-.434s.152-.277.218-.408.148-.3.231-.476.176-.4.3-.7.214-.546.27-.706.108-.32.149-.458.085-.3.121-.443.071-.3.1-.442.059-.336.095-.6.058-.478.068-.612.014-.327.014-.579v-.653a3.276 3.276 0 0 0-.057-.464 6.3 6.3 0 0 0-.157-.673 5.043 5.043 0 0 0-.229-.632q-.142-.321-.3-.611c-.115-.206-.233-.4-.35-.585-.137-.211-.268-.417-.39-.611-.135-.212-.26-.422-.373-.624s-.226-.41-.342-.633-.218-.428-.33-.653-.227-.462-.348-.715-.249-.523-.38-.807q-.187-.4-.375-.762t-.373-.688c-.113-.2-.235-.393-.363-.581s-.262-.367-.4-.536c-.155-.192-.309-.381-.464-.57s-.3-.364-.447-.538-.3-.351-.44-.514a3.949 3.949 0 0 0-.322-.337 3.376 3.376 0 0 0-.333-.269c-.137-.1-.283-.2-.441-.3-.191-.122-.372-.243-.546-.365s-.356-.263-.534-.41-.337-.288-.492-.433c-.138-.129-.294-.277-.465-.44-.152-.143-.283-.259-.386-.342a2.14 2.14 0 0 0-.284-.189 4.025 4.025 0 0 0-.383-.188 4.8 4.8 0 0 1-.616-.317 2.737 2.737 0 0 1-.687-.6 3.274 3.274 0 0 1-.442-.7q-.074-.161-.142-.334a1.211 1.211 0 0 1-.647-.479z" class="cls-1"/>
        </g>
    </g>
</svg>
